<?xml version="1.0" encoding="utf-8"?>
<!-- Generator: Adobe Illustrator 25.0.1, SVG Export Plug-In . SVG Version: 6.00 Build 0)  -->
<svg version="1.1" id="WordPress" xmlns="http://www.w3.org/2000/svg" xmlns:xlink="http://www.w3.org/1999/xlink" x="0px" y="0px"
	 viewBox="0 0 1400 475" style="enable-background:new 0 0 1400 475;" xml:space="preserve">
<style type="text/css">
	.st0{fill:#FFFFFF;}
</style>
<g id="Logotype">
	<g id="Wordmark">
		<path class="st0" d="M780.14,206.71h-47.19v5.01c14.76,0,17.14,3.16,17.14,21.88v33.75c0,18.72-2.37,22.15-17.14,22.15
			c-11.33-1.58-18.98-7.65-29.53-19.25l-12.13-13.18c16.34-2.9,25.04-13.18,25.04-24.79c0-14.5-12.39-25.57-35.59-25.57h-46.4v5.01
			c14.76,0,17.14,3.16,17.14,21.88v33.75c0,18.72-2.37,22.15-17.14,22.15v5.01h52.47v-5.01c-14.76,0-17.14-3.43-17.14-22.15v-9.49
			h4.48l29.26,36.64h76.72c37.7,0,54.05-20.03,54.05-44.03C834.18,226.48,817.84,206.71,780.14,206.71z M669.67,249.68v-35.06h10.81
			c11.86,0,17.14,8.17,17.14,17.66c0,9.23-5.27,17.4-17.14,17.4H669.67z M780.93,286.33h-1.85c-9.49,0-10.81-2.37-10.81-14.5v-57.21
			c0,0,11.6,0,12.65,0c27.42,0,32.43,20.03,32.43,35.59C813.35,266.29,808.34,286.33,780.93,286.33z"/>
		<path class="st0" d="M487.49,259.44l18.19-53.79c5.27-15.55,2.9-20.03-13.97-20.03v-5.27h49.57v5.27
			c-16.61,0-20.56,3.95-27.16,23.2l-30.06,90.17h-3.43l-26.89-82.52l-27.42,82.52h-3.43l-29.26-90.17
			c-6.33-19.25-10.55-23.2-25.84-23.2v-5.27h58.53v5.27c-15.56,0-19.78,3.69-14.24,20.03l17.66,53.79l26.63-79.1h5.01L487.49,259.44
			z"/>
		<path class="st0" d="M577.13,297.93c-29,0-52.73-21.35-52.73-47.46c0-25.84,23.73-47.19,52.73-47.19c29,0,52.73,21.36,52.73,47.19
			C629.86,276.57,606.13,297.93,577.13,297.93z M577.13,211.45c-24.25,0-32.69,21.88-32.69,39.02c0,17.4,8.44,39.02,32.69,39.02
			c24.52,0,32.96-21.62,32.96-39.02C610.09,233.33,601.65,211.45,577.13,211.45z"/>
		<path class="st0" d="M899.3,289.23v5.27h-60.37v-5.27c17.66,0,20.83-4.48,20.83-30.85V216.2c0-26.37-3.16-30.58-20.83-30.58v-5.27
			h54.57c27.16,0,42.19,13.98,42.19,32.7c0,18.19-15.03,32.43-42.19,32.43h-15.03v12.92C878.47,284.75,881.64,289.23,899.3,289.23z
			 M893.5,189.83h-15.03v45.88h15.03c14.77,0,21.62-10.28,21.62-22.67C915.12,200.38,908.27,189.83,893.5,189.83z"/>
		<path class="st0" d="M1116.81,269.72l-1.32,4.75c-2.37,8.7-5.27,11.86-23.99,11.86h-3.69c-13.71,0-16.08-3.16-16.08-21.88v-12.13
			c20.56,0,22.15,1.84,22.15,15.55h5.01v-39.28h-5.01c0,13.71-1.58,15.55-22.15,15.55v-29.53h14.5c18.72,0,21.62,3.16,23.99,11.86
			l1.32,5.01h4.22l-1.84-24.78h-77.51v5.01c14.76,0,17.14,3.16,17.14,21.88v33.75c0,17.12-2.02,21.44-13.66,22.05
			c-11.06-1.69-18.66-7.72-29.05-19.15l-12.13-13.18c16.35-2.9,25.05-13.18,25.05-24.79c0-14.5-12.39-25.57-35.59-25.57h-46.4v5.01
			c14.76,0,17.14,3.16,17.14,21.88v33.75c0,18.72-2.37,22.15-17.14,22.15v5.01h52.47v-5.01c-14.76,0-17.14-3.43-17.14-22.15v-9.49
			h4.48l29.26,36.64h108.36l1.58-24.78H1116.81z M977.08,249.68v-35.06h10.81c11.86,0,17.14,8.17,17.14,17.66
			c0,9.23-5.27,17.4-17.14,17.4H977.08z"/>
		<path class="st0" d="M1170.33,297.93c-10.55,0-19.78-5.54-23.73-8.96c-1.32,1.32-3.69,5.27-4.22,8.96h-5.01v-36.38h5.27
			c2.11,17.4,14.24,27.68,29.79,27.68c8.44,0,15.29-4.75,15.29-12.65c0-6.85-6.07-12.13-16.87-17.14l-15.03-7.12
			c-10.55-5.01-18.46-13.71-18.46-25.31c0-12.65,11.86-23.46,28.21-23.46c8.7,0,16.08,3.16,20.56,6.85
			c1.32-1.06,2.63-3.96,3.43-7.12h5.01v31.11h-5.54c-1.85-12.39-8.7-22.68-22.67-22.68c-7.38,0-14.24,4.22-14.24,10.81
			c0,6.85,5.54,10.54,18.19,16.34l14.5,7.12c12.66,6.06,17.66,15.82,17.66,23.73C1202.49,286.33,1187.99,297.93,1170.33,297.93z"/>
		<path class="st0" d="M1250.05,297.93c-10.55,0-19.78-5.54-23.73-8.96c-1.32,1.32-3.69,5.27-4.22,8.96h-5.01v-36.38h5.27
			c2.11,17.4,14.24,27.68,29.79,27.68c8.44,0,15.29-4.75,15.29-12.65c0-6.85-6.07-12.13-16.87-17.14l-15.03-7.12
			c-10.55-5.01-18.46-13.71-18.46-25.31c0-12.65,11.86-23.46,28.21-23.46c8.7,0,16.08,3.16,20.56,6.85
			c1.32-1.06,2.63-3.96,3.43-7.12h5.01v31.11h-5.54c-1.85-12.39-8.7-22.68-22.67-22.68c-7.38,0-14.24,4.22-14.24,10.81
			c0,6.85,5.54,10.54,18.19,16.34l14.5,7.12c12.66,6.06,17.66,15.82,17.66,23.73C1282.21,286.33,1267.71,297.93,1250.05,297.93z"/>
	</g>
	<g id="W_Mark">
		<path class="st0" d="M237.29,125.76c15.06,0,29.66,2.95,43.41,8.76c6.61,2.79,12.98,6.25,18.94,10.28
			c5.91,3.99,11.46,8.57,16.51,13.62c5.05,5.05,9.63,10.6,13.62,16.51c4.03,5.96,7.49,12.33,10.28,18.94
			c5.81,13.74,8.76,28.35,8.76,43.41c0,15.06-2.95,29.66-8.76,43.41c-2.79,6.61-6.25,12.98-10.28,18.94
			c-3.99,5.91-8.57,11.46-13.62,16.51c-5.05,5.05-10.6,9.63-16.51,13.62c-5.96,4.03-12.33,7.49-18.94,10.28
			c-13.74,5.81-28.35,8.76-43.41,8.76c-15.06,0-29.66-2.95-43.41-8.76c-6.61-2.79-12.98-6.25-18.94-10.28
			c-5.91-3.99-11.46-8.57-16.51-13.62c-5.05-5.05-9.63-10.6-13.62-16.51c-4.03-5.96-7.49-12.33-10.28-18.94
			c-5.81-13.74-8.76-28.35-8.76-43.41c0-15.06,2.95-29.66,8.76-43.41c2.79-6.61,6.25-12.98,10.28-18.94
			c3.99-5.91,8.57-11.46,13.62-16.51c5.05-5.05,10.6-9.63,16.51-13.62c5.96-4.03,12.33-7.49,18.94-10.28
			C207.62,128.71,222.23,125.76,237.29,125.76 M237.29,118.64c-65.53,0-118.64,53.12-118.64,118.64
			c0,65.53,53.12,118.64,118.64,118.64c65.53,0,118.64-53.12,118.64-118.64C355.93,171.76,302.81,118.64,237.29,118.64
			L237.29,118.64z"/>
		<path class="st0" d="M138.42,237.28c0,39.13,22.74,72.95,55.72,88.98l-47.16-129.22C141.49,209.34,138.42,222.95,138.42,237.28z
			 M304.03,232.3c0-12.22-4.39-20.68-8.15-27.27c-5.01-8.15-9.71-15.04-9.71-23.19c0-9.09,6.89-17.55,16.6-17.55
			c0.44,0,0.85,0.05,1.28,0.08c-17.59-16.12-41.03-25.96-66.77-25.96c-34.54,0-64.93,17.72-82.61,44.56
			c2.32,0.07,4.51,0.12,6.36,0.12c10.34,0,26.35-1.26,26.35-1.26c5.33-0.31,5.96,7.52,0.63,8.15c0,0-5.36,0.63-11.31,0.94l36,107.09
			l21.64-64.89l-15.4-42.2c-5.33-0.31-10.37-0.94-10.37-0.94c-5.33-0.31-4.71-8.46,0.63-8.15c0,0,16.32,1.26,26.04,1.26
			c10.34,0,26.35-1.26,26.35-1.26c5.33-0.31,5.96,7.52,0.63,8.15c0,0-5.36,0.63-11.31,0.94l35.73,106.28l10.2-32.32
			C301.38,250.77,304.03,240.76,304.03,232.3z M239.02,245.93l-29.67,86.2c8.86,2.61,18.23,4.03,27.93,4.03
			c11.51,0,22.56-1.99,32.83-5.61c-0.26-0.42-0.51-0.87-0.71-1.36L239.02,245.93z M324.05,189.85c0.42,3.15,0.66,6.53,0.66,10.17
			c0,10.03-1.88,21.31-7.52,35.41L287,322.74c29.39-17.14,49.16-48.98,49.16-85.46C336.16,220.09,331.77,203.93,324.05,189.85z"/>
	</g>
</g>
</svg>
